<?xml version="1.0" encoding="UTF-8"?>
<svg version="1.1" xmlns="http://www.w3.org/2000/svg" width="32" height="32">
<path d="M0 0 C2.00720923 0.28674418 4.0085944 0.61866701 6 1 C9.18181818 16.45454545 9.18181818 16.45454545 7 23 C6.34 23 5.68 23 5 23 C5 24.65 5 26.3 5 28 C3.35 28 1.7 28 0 28 C-0.66 26.35 -1.32 24.7 -2 23 C-2.33 24.65 -2.66 26.3 -3 28 C-4.65 28 -6.3 28 -8 28 C-9.35439668 25.29120665 -9.06501451 22.99066732 -9 20 C-9.99 20 -10.98 20 -12 20 C-12.28558694 14.38345681 -12.10171075 11.78180408 -9 7 C-8.83249586 4.33290931 -8.83249586 4.33290931 -9 2 C-8 1 -8 1 -5.5625 0.9375 C-4.2940625 0.9684375 -4.2940625 0.9684375 -3 1 C-2.34 1 -1.68 1 -1 1 C-0.67 0.67 -0.34 0.34 0 0 Z " fill="#ACD8E6" transform="translate(18,2)"/>
<path d="M0 0 C2.64 0 5.28 0 8 0 C8.02722517 2.20826378 8.04649729 4.41662638 8.0625 6.625 C8.07410156 7.85476562 8.08570313 9.08453125 8.09765625 10.3515625 C8.00863924 13.67723791 7.63686087 16.74047588 7 20 C5.35 20 3.7 20 2 20 C0.64560332 17.29120665 0.93498549 14.99066732 1 12 C0.01 12 -0.98 12 -2 12 C-2.28571429 3.42857143 -2.28571429 3.42857143 0 0 Z " fill="#0F3BE9" transform="translate(8,10)"/>
<path d="M0 0 C2.00720923 0.28674418 4.0085944 0.61866701 6 1 C6.33 3.31 6.66 5.62 7 8 C4.52076199 8.02685095 2.0418116 8.04676547 -0.4375 8.0625 C-1.14455078 8.07087891 -1.85160156 8.07925781 -2.58007812 8.08789062 C-4.38693559 8.09653588 -6.19387603 8.05220011 -8 8 C-9 7 -9 7 -9.125 4.5 C-9 2 -9 2 -8 1 C-6.33388095 0.957279 -4.66617115 0.95936168 -3 1 C-2.34 1 -1.68 1 -1 1 C-0.67 0.67 -0.34 0.34 0 0 Z " fill="#763610" transform="translate(18,2)"/>
<path d="M0 0 C2.97 0 5.94 0 9 0 C9 0.66 9 1.32 9 2 C8.34 2 7.68 2 7 2 C7 3.65 7 5.3 7 7 C5.35 7 3.7 7 2 7 C1.34 4.69 0.68 2.38 0 0 Z " fill="#AF8F8C" transform="translate(16,23)"/>
<path d="M0 0 C1.65 0 3.3 0 5 0 C5.625 1.875 5.625 1.875 6 4 C5.34 4.66 4.68 5.32 4 6 C1.375 5.625 1.375 5.625 -1 5 C-0.67 3.35 -0.34 1.7 0 0 Z " fill="#F7BBB8" transform="translate(10,3)"/>
<path d="M0 0 C1.65 0 3.3 0 5 0 C5 2.97 5 5.94 5 9 C4.67 9 4.34 9 4 9 C3.67 7.02 3.34 5.04 3 3 C2.01 2.67 1.02 2.34 0 2 C0 1.34 0 0.68 0 0 Z " fill="#4879F5" transform="translate(11,10)"/>
<path d="M0 0 C1.32 0 2.64 0 4 0 C3.67 1.32 3.34 2.64 3 4 C1.68 3.67 0.36 3.34 -1 3 C-0.67 2.01 -0.34 1.02 0 0 Z " fill="#F4B5AF" transform="translate(19,5)"/>
</svg>
